<?xml version="1.0" encoding="utf-8"?>
<!-- Generator: Adobe Illustrator 27.8.1, SVG Export Plug-In . SVG Version: 6.00 Build 0)  -->
<svg version="1.1" xmlns="http://www.w3.org/2000/svg" xmlns:xlink="http://www.w3.org/1999/xlink" x="0px" y="0px"
	 viewBox="0 0 1920 1080" style="enable-background:new 0 0 1920 1080;" xml:space="preserve">
<style type="text/css">
	.st0{display:none;}
	.st1{display:inline;}
	.st2{display:inline;fill:#E72600;}
	.st3{fill:url(#SVGID_1_);}
	.st4{fill:url(#SVGID_00000065796533067159437270000006411022205313927834_);}
	.st5{font-family:'DejaVuSerif';}
	.st6{font-size:70px;}
</style>
<g id="Layer_1" class="st0">
	<g class="st1">
		<path d="M226.86,214.19v-3.62h6.49v-43.75h-6.49v-3.66h20.3c8.8,0,15.65,2.24,20.56,6.73c4.91,4.49,7.37,10.73,7.37,18.73
			c0,8.02-2.46,14.29-7.38,18.8s-11.77,6.77-20.54,6.77H226.86z M240.29,210.56h6.36c6.63,0,11.72-1.89,15.26-5.67
			c3.54-3.78,5.31-9.21,5.31-16.27c0-7.06-1.77-12.46-5.3-16.2c-3.53-3.74-8.62-5.61-15.28-5.61h-6.36V210.56z"/>
		<path d="M313.27,191.49v19.07h5.61v3.62h-11.89v-3.93c-1.39,1.69-3,2.93-4.82,3.73c-1.82,0.8-3.95,1.2-6.39,1.2
			c-4.03,0-7.23-1.07-9.6-3.21c-2.37-2.14-3.55-5.04-3.55-8.68c0-3.76,1.36-6.68,4.07-8.75c2.71-2.07,6.54-3.11,11.48-3.11h8.82
			v-2.5c0-2.76-0.84-4.89-2.51-6.41c-1.67-1.52-4.03-2.27-7.06-2.27c-2.51,0-4.5,0.57-5.98,1.71c-1.48,1.14-2.4,2.83-2.77,5.06
			h-3.25v-7.35c2.19-0.93,4.31-1.63,6.37-2.1c2.06-0.47,4.07-0.7,6.03-0.7c5.04,0,8.87,1.25,11.5,3.74S313.27,186.73,313.27,191.49z
			 M306.98,202.77v-7.69h-8.1c-3.12,0-5.45,0.67-6.97,2.02c-1.53,1.34-2.29,3.41-2.29,6.19c0,2.53,0.77,4.53,2.32,6.02
			c1.55,1.48,3.65,2.22,6.29,2.22c2.62,0,4.73-0.81,6.34-2.43C306.18,207.48,306.98,205.37,306.98,202.77z"/>
		<path d="M335.69,210.56h5.95v3.62h-18.25v-3.62h6.02v-29.05h-6.02v-3.66h12.3V210.56z M327.66,166.58c0-1.05,0.38-1.96,1.15-2.73
			c0.76-0.77,1.68-1.16,2.75-1.16c1.05,0,1.95,0.39,2.72,1.16c0.76,0.77,1.15,1.69,1.15,2.73c0,1.07-0.38,1.98-1.13,2.73
			s-1.66,1.13-2.73,1.13c-1.07,0-1.99-0.38-2.75-1.13C328.04,168.56,327.66,167.65,327.66,166.58z"/>
		<path d="M357.6,210.56h5.95v3.62h-18.29v-3.62h6.05v-45.94h-6.05V161h12.34V210.56z"/>
		<path d="M380.74,220.85l2.39-6.05l-13.57-33.29h-4.14v-3.66h16.71v3.66h-5.81l10.22,24.99l10.22-24.99h-5.43v-3.66h13.64v3.66
			h-4.07l-16.65,40.88c-1.14,2.83-2.4,4.76-3.79,5.79c-1.39,1.04-3.35,1.56-5.88,1.56c-1.07,0-2.17-0.09-3.3-0.27
			c-1.13-0.18-2.26-0.44-3.4-0.79v-6.94h3.21c0.14,1.55,0.53,2.66,1.18,3.33c0.65,0.67,1.66,1.01,3.02,1.01
			c1.25,0,2.26-0.35,3.02-1.04C379.09,224.34,379.9,222.95,380.74,220.85z"/>
		<path d="M431.29,214.19v-3.62h6.49v-43.75h-6.49v-3.66h25.19c5.15,0,9.03,1.05,11.64,3.16c2.61,2.11,3.91,5.26,3.91,9.45
			c0,3.03-0.91,5.45-2.72,7.25c-1.81,1.8-4.46,2.91-7.95,3.32c4.33,0.55,7.62,1.93,9.86,4.15c2.24,2.22,3.37,5.2,3.37,8.94
			c0,5.06-1.6,8.78-4.79,11.18c-3.19,2.39-8.17,3.59-14.94,3.59H431.29z M444.72,184.72h8.68c3.74,0,6.47-0.72,8.19-2.15
			c1.72-1.44,2.58-3.7,2.58-6.8c0-3.12-0.86-5.39-2.58-6.82c-1.72-1.42-4.45-2.14-8.19-2.14h-8.68V184.72z M444.72,210.56h10.22
			c4.1,0,7.1-0.89,8.99-2.67c1.89-1.78,2.84-4.6,2.84-8.48c0-3.85-0.94-6.66-2.82-8.43c-1.88-1.77-4.88-2.65-9.01-2.65h-10.22
			V210.56z"/>
		<path d="M503.65,177.85h11.76v32.71h5.95v3.62h-12.24v-6.43c-1.16,2.42-2.67,4.26-4.51,5.52s-3.99,1.9-6.43,1.9
			c-4.03,0-7-1.15-8.9-3.44c-1.9-2.29-2.85-5.88-2.85-10.78v-19.45h-5.67v-3.66h12v21.16c0,4.42,0.54,7.45,1.62,9.09
			c1.08,1.64,3.01,2.46,5.79,2.46c2.92,0,5.14-1.07,6.67-3.21c1.53-2.14,2.29-5.25,2.29-9.33v-16.51h-5.47V177.85z"/>
		<path d="M539.06,220.85l2.39-6.05l-13.57-33.29h-4.14v-3.66h16.71v3.66h-5.81l10.22,24.99l10.22-24.99h-5.43v-3.66h13.64v3.66
			h-4.07l-16.65,40.88c-1.14,2.83-2.4,4.76-3.79,5.79c-1.39,1.04-3.35,1.56-5.88,1.56c-1.07,0-2.17-0.09-3.3-0.27
			c-1.13-0.18-2.26-0.44-3.4-0.79v-6.94h3.21c0.14,1.55,0.53,2.66,1.18,3.33c0.65,0.67,1.66,1.01,3.02,1.01
			c1.25,0,2.26-0.35,3.02-1.04C537.41,224.34,538.22,222.95,539.06,220.85z"/>
		<path d="M567.43,212.17v-8.48h3.62c0.09,2.71,0.94,4.74,2.55,6.08c1.61,1.34,3.98,2.02,7.13,2.02c2.83,0,4.98-0.53,6.46-1.59
			c1.48-1.06,2.22-2.6,2.22-4.63c0-1.59-0.54-2.88-1.62-3.86c-1.08-0.98-3.37-2.03-6.85-3.14l-4.55-1.54
			c-3.12-1-5.38-2.26-6.78-3.76c-1.4-1.5-2.1-3.42-2.1-5.74c0-3.33,1.22-5.94,3.66-7.83c2.44-1.89,5.81-2.84,10.12-2.84
			c1.91,0,3.93,0.25,6.05,0.75c2.12,0.5,4.31,1.23,6.56,2.19v7.93h-3.62c-0.09-2.35-0.91-4.18-2.46-5.5
			c-1.55-1.32-3.66-1.98-6.32-1.98c-2.64,0-4.64,0.47-6,1.4c-1.36,0.93-2.03,2.34-2.03,4.2c0,1.53,0.51,2.75,1.54,3.67
			s3.08,1.86,6.15,2.82l4.99,1.54c3.44,1.07,5.92,2.41,7.43,4.02s2.27,3.67,2.27,6.2c0,3.44-1.32,6.15-3.95,8.12
			c-2.63,1.97-6.26,2.96-10.89,2.96c-2.35,0-4.64-0.25-6.87-0.75C571.89,213.93,569.66,213.17,567.43,212.17z"/>
	</g>
	<path class="st2" d="M373.99,258.95c-31.15-5.36-59.12-18.26-82.35-36.5c-20.14,8.75-42.85,11.93-65.96,7.96
		c-6.03-1.04-11.87-2.53-17.5-4.42c26.04,45.02,71.13,78.59,126.4,88.09c81.84,14.07,160.3-29.02,194.47-100.4
		C488.54,250.49,432.11,268.95,373.99,258.95z"/>
	<path class="st2" d="M374.45,119.55c-31.15,5.36-59.12,18.26-82.35,36.5c-20.14-8.75-42.85-11.93-65.96-7.96
		c-6.03,1.04-11.87,2.53-17.5,4.42c26.04-45.02,71.13-78.59,126.4-88.09c81.84-14.07,160.3,29.02,194.47,100.4
		C489.01,128.01,432.58,109.55,374.45,119.55z"/>
</g>
<g id="Layer_1_copy">
	<g>
		<path d="M329.16,631.96v-13.96h25.02V449.45h-25.02v-14.09h78.22c33.89,0,60.29,8.65,79.21,25.94
			c18.92,17.3,28.38,41.35,28.38,72.16c0,30.9-9.48,55.04-28.44,72.43c-18.96,17.38-45.34,26.07-79.14,26.07H329.16z M380.91,618.01
			h24.49c25.55,0,45.14-7.29,58.8-21.86c13.65-14.57,20.48-35.47,20.48-62.68c0-27.21-6.8-48.02-20.41-62.42
			c-13.61-14.4-33.23-21.6-58.86-21.6h-24.49V618.01z"/>
		<path d="M662.06,544.53v73.48h21.6v13.96h-45.83v-15.14c-5.36,6.5-11.54,11.28-18.57,14.35c-7.02,3.07-15.23,4.61-24.62,4.61
			c-15.54,0-27.87-4.13-37-12.38c-9.13-8.25-13.7-19.4-13.7-33.45c0-14.49,5.22-25.72,15.67-33.71
			c10.45-7.99,25.19-11.98,44.25-11.98h33.97v-9.61c0-10.62-3.23-18.85-9.68-24.69c-6.45-5.84-15.52-8.76-27.19-8.76
			c-9.66,0-17.34,2.2-23.04,6.58c-5.71,4.39-9.26,10.89-10.67,19.49h-12.51v-28.31c8.43-3.6,16.61-6.3,24.56-8.1
			c7.94-1.8,15.69-2.7,23.24-2.7c19.4,0,34.17,4.81,44.31,14.42C656.99,512.2,662.06,526.18,662.06,544.53z M637.83,587.98v-29.63
			h-31.21c-12.03,0-20.98,2.59-26.86,7.77c-5.88,5.18-8.82,13.12-8.82,23.83c0,9.74,2.98,17.47,8.95,23.18
			c5.97,5.71,14.04,8.56,24.23,8.56c10.09,0,18.24-3.12,24.43-9.35C634.73,606.11,637.83,597.99,637.83,587.98z"/>
		<path d="M748.44,618.01h22.91v13.96h-70.32v-13.96h23.18V506.08h-23.18v-14.09h47.41V618.01z M717.49,448.53
			c0-4.04,1.47-7.55,4.41-10.53c2.94-2.98,6.47-4.48,10.6-4.48c4.04,0,7.53,1.49,10.47,4.48c2.94,2.99,4.41,6.5,4.41,10.53
			c0,4.13-1.45,7.64-4.35,10.53c-2.9,2.9-6.41,4.35-10.53,4.35c-4.13,0-7.66-1.45-10.6-4.35
			C718.96,456.17,717.49,452.66,717.49,448.53z"/>
		<path d="M832.85,618.01h22.91v13.96h-70.45v-13.96h23.31V441.02h-23.31v-13.96h47.54V618.01z"/>
		<path d="M922,657.64l9.22-23.31l-52.28-128.26H863v-14.09h64.39v14.09h-22.39l39.37,96.26l39.37-96.26h-20.94v-14.09h52.54v14.09
			h-15.67l-64.13,157.49c-4.39,10.88-9.26,18.32-14.62,22.32c-5.36,3.99-12.9,5.99-22.65,5.99c-4.13,0-8.36-0.35-12.71-1.05
			c-4.35-0.7-8.71-1.71-13.1-3.03v-26.73h12.38c0.53,5.97,2.04,10.25,4.54,12.84c2.5,2.59,6.39,3.88,11.65,3.88
			c4.83,0,8.71-1.34,11.65-4.02C915.65,671.1,918.75,665.72,922,657.64z"/>
		<path d="M1116.76,631.96v-13.96h25.02V449.45h-25.02v-14.09h97.05c19.84,0,34.78,4.06,44.84,12.18
			c10.05,8.12,15.08,20.26,15.08,36.41c0,11.68-3.49,20.98-10.47,27.92c-6.98,6.94-17.18,11.19-30.62,12.77
			c16.68,2.11,29.34,7.44,37.99,16c8.65,8.56,12.97,20.04,12.97,34.43c0,19.49-6.15,33.84-18.44,43.06
			c-12.29,9.22-31.47,13.83-57.55,13.83H1116.76z M1168.51,518.45h33.45c14.4,0,24.91-2.77,31.54-8.3
			c6.63-5.53,9.94-14.26,9.94-26.2c0-12.03-3.31-20.78-9.94-26.27c-6.63-5.49-17.14-8.23-31.54-8.23h-33.45V518.45z M1168.51,618.01
			h39.37c15.8,0,27.34-3.42,34.63-10.27c7.29-6.85,10.93-17.73,10.93-32.66c0-14.84-3.62-25.66-10.86-32.46
			c-7.24-6.8-18.81-10.21-34.7-10.21h-39.37V618.01z"/>
		<path d="M1395.53,491.99h45.3v126.02h22.91v13.96h-47.14v-24.76c-4.48,9.31-10.27,16.39-17.38,21.27s-15.36,7.31-24.76,7.31
			c-15.54,0-26.97-4.41-34.3-13.23c-7.33-8.82-11-22.67-11-41.55v-74.93h-21.86v-14.09h46.22v81.51c0,17.03,2.08,28.71,6.26,35.03
			c4.17,6.32,11.61,9.48,22.32,9.48c11.24,0,19.8-4.13,25.68-12.38c5.88-8.25,8.82-20.23,8.82-35.95v-63.6h-21.07V491.99z"/>
		<path d="M1531.95,657.64l9.22-23.31l-52.28-128.26h-15.93v-14.09h64.39v14.09h-22.39l39.37,96.26l39.37-96.26h-20.94v-14.09h52.54
			v14.09h-15.67l-64.13,157.49c-4.39,10.88-9.26,18.32-14.62,22.32c-5.36,3.99-12.9,5.99-22.65,5.99c-4.13,0-8.36-0.35-12.71-1.05
			c-4.35-0.7-8.71-1.71-13.1-3.03v-26.73h12.38c0.53,5.97,2.04,10.25,4.54,12.84c2.5,2.59,6.39,3.88,11.65,3.88
			c4.83,0,8.71-1.34,11.65-4.02C1525.61,671.1,1528.7,665.72,1531.95,657.64z"/>
		<path d="M1641.25,624.2v-32.66h13.96c0.35,10.45,3.62,18.26,9.81,23.44c6.19,5.18,15.34,7.77,27.46,7.77
			c10.88,0,19.18-2.04,24.89-6.12c5.7-4.08,8.56-10.03,8.56-17.84c0-6.14-2.09-11.1-6.25-14.88c-4.17-3.77-12.97-7.81-26.4-12.11
			l-17.51-5.93c-12.03-3.86-20.74-8.69-26.14-14.49c-5.4-5.79-8.1-13.17-8.1-22.12c0-12.82,4.7-22.87,14.09-30.16
			c9.39-7.29,22.39-10.93,38.98-10.93c7.37,0,15.14,0.97,23.31,2.9c8.16,1.93,16.59,4.74,25.28,8.43v30.55h-13.96
			c-0.35-9.04-3.51-16.11-9.48-21.2c-5.97-5.09-14.09-7.64-24.36-7.64c-10.18,0-17.89,1.8-23.11,5.4c-5.23,3.6-7.84,9-7.84,16.2
			c0,5.88,1.98,10.6,5.93,14.16s11.85,7.18,23.7,10.86l19.23,5.93c13.25,4.13,22.8,9.28,28.64,15.47c5.84,6.19,8.76,14.16,8.76,23.9
			c0,13.26-5.07,23.68-15.21,31.27c-10.14,7.59-24.12,11.39-41.94,11.39c-9.04,0-17.87-0.97-26.47-2.9
			C1658.45,630.96,1649.85,628.06,1641.25,624.2z"/>
	</g>
	<linearGradient id="SVGID_1_" gradientUnits="userSpaceOnUse" x1="257.1779" y1="828.4901" x2="1493.3628" y2="828.4901">
		<stop  offset="0.0189" style="stop-color:#EFFF00"/>
		<stop  offset="0.3549" style="stop-color:#F6A99B"/>
		<stop  offset="0.6041" style="stop-color:#E72600"/>
		<stop  offset="0.8833" style="stop-color:#000000"/>
	</linearGradient>
	<path class="st3" d="M895.99,804.42c-120.03-20.64-227.77-70.35-317.27-140.63c-77.59,33.71-165.09,45.96-254.1,30.65
		c-23.24-4-45.75-9.73-67.43-17.04c100.32,173.45,274.06,302.76,486.97,339.38c315.31,54.22,617.57-111.82,749.21-386.79
		C1337.33,771.83,1119.91,842.93,895.99,804.42z"/>
	
		<linearGradient id="SVGID_00000159444678036489325550000002483450404394291893_" gradientUnits="userSpaceOnUse" x1="258.9741" y1="243.286" x2="1495.1589" y2="243.286">
		<stop  offset="0.0189" style="stop-color:#EFFF00"/>
		<stop  offset="0.3549" style="stop-color:#F6A99B"/>
		<stop  offset="0.6041" style="stop-color:#E72600"/>
		<stop  offset="0.8833" style="stop-color:#000000"/>
	</linearGradient>
	<path style="fill:url(#SVGID_00000159444678036489325550000002483450404394291893_);" d="M897.79,267.36
		C777.76,288,670.01,337.7,580.51,407.99c-77.59-33.71-165.09-45.96-254.1-30.65c-23.24,4-45.75,9.73-67.43,17.04
		C359.3,220.93,533.03,91.62,745.95,55c315.31-54.22,617.57,111.82,749.21,386.79C1339.13,299.94,1121.71,228.85,897.79,267.36z"/>
	<text transform="matrix(1 0 0 1 223.2969 214.4175)" class="st0 st5 st6">Daily Buys</text>
</g>
</svg>
